<mxfile host="app.diagrams.net" modified="2022-01-19T13:27:29.419Z" agent="5.0 (Macintosh; Intel Mac OS X 10_15_7) AppleWebKit/537.36 (KHTML, like Gecko) Chrome/97.0.4692.71 Safari/537.36" etag="byd03wtZeZklrx9jwVpY" version="16.4.0" type="github">
  <diagram id="nXnR8lUNj0mGzX4g0C_C" name="Page-1">
    <mxGraphModel dx="2902" dy="849" grid="1" gridSize="10" guides="1" tooltips="1" connect="1" arrows="1" fold="1" page="1" pageScale="1" pageWidth="827" pageHeight="1169" math="0" shadow="0">
      <root>
        <mxCell id="0" />
        <mxCell id="1" parent="0" />
        <mxCell id="4Y34ImJFYAZYyXCG5VLT-4" style="edgeStyle=orthogonalEdgeStyle;orthogonalLoop=1;jettySize=auto;html=1;fontFamily=Lato;fontSource=https%3A%2F%2Ffonts.googleapis.com%2Fcss%3Ffamily%3DLato;curved=1;" edge="1" parent="1" source="4Y34ImJFYAZYyXCG5VLT-1" target="4Y34ImJFYAZYyXCG5VLT-3">
          <mxGeometry relative="1" as="geometry" />
        </mxCell>
        <mxCell id="4Y34ImJFYAZYyXCG5VLT-6" value="READER" style="edgeLabel;html=1;align=center;verticalAlign=bottom;resizable=0;points=[];fontFamily=Lato;labelPosition=center;verticalLabelPosition=top;" vertex="1" connectable="0" parent="4Y34ImJFYAZYyXCG5VLT-4">
          <mxGeometry x="-0.5159" y="-8" relative="1" as="geometry">
            <mxPoint as="offset" />
          </mxGeometry>
        </mxCell>
        <mxCell id="4Y34ImJFYAZYyXCG5VLT-23" style="edgeStyle=orthogonalEdgeStyle;curved=1;orthogonalLoop=1;jettySize=auto;html=1;fontFamily=Lato;fontSource=https%3A%2F%2Ffonts.googleapis.com%2Fcss%3Ffamily%3DLato;" edge="1" parent="1" source="4Y34ImJFYAZYyXCG5VLT-1" target="4Y34ImJFYAZYyXCG5VLT-22">
          <mxGeometry relative="1" as="geometry" />
        </mxCell>
        <mxCell id="4Y34ImJFYAZYyXCG5VLT-24" value="AppID, Secret, TenantID" style="edgeLabel;html=1;align=center;verticalAlign=middle;resizable=0;points=[];fontFamily=Lato;" vertex="1" connectable="0" parent="4Y34ImJFYAZYyXCG5VLT-23">
          <mxGeometry x="0.2947" y="17" relative="1" as="geometry">
            <mxPoint as="offset" />
          </mxGeometry>
        </mxCell>
        <mxCell id="4Y34ImJFYAZYyXCG5VLT-1" value="Application" style="aspect=fixed;html=1;points=[];align=center;image;fontSize=11;image=img/lib/azure2/identity/App_Registrations.svg;labelPosition=center;verticalLabelPosition=top;verticalAlign=bottom;fontFamily=Lato;fontSource=https%3A%2F%2Ffonts.googleapis.com%2Fcss%3Ffamily%3DLato;" vertex="1" parent="1">
          <mxGeometry x="80" y="239.85999999999999" width="33" height="33.52" as="geometry" />
        </mxCell>
        <mxCell id="4Y34ImJFYAZYyXCG5VLT-25" style="edgeStyle=orthogonalEdgeStyle;curved=1;orthogonalLoop=1;jettySize=auto;html=1;entryX=0.985;entryY=0.662;entryDx=0;entryDy=0;entryPerimeter=0;fontFamily=Lato;fontSource=https%3A%2F%2Ffonts.googleapis.com%2Fcss%3Ffamily%3DLato;" edge="1" parent="1" source="4Y34ImJFYAZYyXCG5VLT-3" target="4Y34ImJFYAZYyXCG5VLT-22">
          <mxGeometry relative="1" as="geometry" />
        </mxCell>
        <mxCell id="4Y34ImJFYAZYyXCG5VLT-26" value="ID" style="edgeLabel;html=1;align=center;verticalAlign=middle;resizable=0;points=[];fontFamily=Lato;" vertex="1" connectable="0" parent="4Y34ImJFYAZYyXCG5VLT-25">
          <mxGeometry x="0.0055" y="-3" relative="1" as="geometry">
            <mxPoint as="offset" />
          </mxGeometry>
        </mxCell>
        <mxCell id="4Y34ImJFYAZYyXCG5VLT-3" value="Subscription" style="aspect=fixed;html=1;points=[];align=center;image;fontSize=11;image=img/lib/azure2/general/Subscriptions.svg;fontFamily=Lato;fontSource=https%3A%2F%2Ffonts.googleapis.com%2Fcss%3Ffamily%3DLato;labelPosition=center;verticalLabelPosition=top;verticalAlign=bottom;" vertex="1" parent="1">
          <mxGeometry x="260" y="232.5" width="30.68" height="49.5" as="geometry" />
        </mxCell>
        <mxCell id="4Y34ImJFYAZYyXCG5VLT-9" style="edgeStyle=orthogonalEdgeStyle;curved=1;orthogonalLoop=1;jettySize=auto;html=1;fontFamily=Lato;fontSource=https%3A%2F%2Ffonts.googleapis.com%2Fcss%3Ffamily%3DLato;" edge="1" parent="1" source="4Y34ImJFYAZYyXCG5VLT-7" target="4Y34ImJFYAZYyXCG5VLT-3">
          <mxGeometry relative="1" as="geometry" />
        </mxCell>
        <mxCell id="4Y34ImJFYAZYyXCG5VLT-31" style="edgeStyle=orthogonalEdgeStyle;curved=1;orthogonalLoop=1;jettySize=auto;html=1;entryX=0.5;entryY=0;entryDx=0;entryDy=0;entryPerimeter=0;fontFamily=Lato;fontSource=https%3A%2F%2Ffonts.googleapis.com%2Fcss%3Ffamily%3DLato;startArrow=classic;startFill=1;" edge="1" parent="1" source="4Y34ImJFYAZYyXCG5VLT-7" target="4Y34ImJFYAZYyXCG5VLT-21">
          <mxGeometry relative="1" as="geometry" />
        </mxCell>
        <mxCell id="4Y34ImJFYAZYyXCG5VLT-52" value="API Calls" style="edgeLabel;html=1;align=center;verticalAlign=middle;resizable=0;points=[];fontSize=11;fontFamily=Lato;" vertex="1" connectable="0" parent="4Y34ImJFYAZYyXCG5VLT-31">
          <mxGeometry x="-0.3133" y="-3" relative="1" as="geometry">
            <mxPoint as="offset" />
          </mxGeometry>
        </mxCell>
        <mxCell id="4Y34ImJFYAZYyXCG5VLT-7" value="Storage Account" style="aspect=fixed;html=1;points=[];align=center;image;fontSize=11;image=img/lib/azure2/storage/Storage_Accounts.svg;fontFamily=Lato;fontSource=https%3A%2F%2Ffonts.googleapis.com%2Fcss%3Ffamily%3DLato;labelPosition=center;verticalLabelPosition=top;verticalAlign=bottom;" vertex="1" parent="1">
          <mxGeometry x="349" y="237.25" width="48.44" height="38.75" as="geometry" />
        </mxCell>
        <mxCell id="4Y34ImJFYAZYyXCG5VLT-18" style="edgeStyle=orthogonalEdgeStyle;curved=1;orthogonalLoop=1;jettySize=auto;html=1;entryX=0.923;entryY=0.538;entryDx=0;entryDy=0;entryPerimeter=0;fontFamily=Lato;fontSource=https%3A%2F%2Ffonts.googleapis.com%2Fcss%3Ffamily%3DLato;" edge="1" parent="1" source="4Y34ImJFYAZYyXCG5VLT-8" target="4Y34ImJFYAZYyXCG5VLT-7">
          <mxGeometry relative="1" as="geometry" />
        </mxCell>
        <mxCell id="4Y34ImJFYAZYyXCG5VLT-30" style="edgeStyle=orthogonalEdgeStyle;curved=1;orthogonalLoop=1;jettySize=auto;html=1;entryX=0;entryY=0.5;entryDx=0;entryDy=0;entryPerimeter=0;fontFamily=Lato;fontSource=https%3A%2F%2Ffonts.googleapis.com%2Fcss%3Ffamily%3DLato;" edge="1" parent="1" source="4Y34ImJFYAZYyXCG5VLT-20" target="4Y34ImJFYAZYyXCG5VLT-21">
          <mxGeometry relative="1" as="geometry" />
        </mxCell>
        <mxCell id="4Y34ImJFYAZYyXCG5VLT-20" value="Logic App" style="sketch=0;aspect=fixed;html=1;points=[];align=center;image;fontSize=11;image=img/lib/mscae/Logic_Apps.svg;fontFamily=Lato;fontSource=https%3A%2F%2Ffonts.googleapis.com%2Fcss%3Ffamily%3DLato;" vertex="1" parent="1">
          <mxGeometry x="120" y="418.25" width="39.74" height="31" as="geometry" />
        </mxCell>
        <mxCell id="4Y34ImJFYAZYyXCG5VLT-33" value="" style="edgeStyle=orthogonalEdgeStyle;curved=1;orthogonalLoop=1;jettySize=auto;html=1;fontFamily=Lato;fontSource=https%3A%2F%2Ffonts.googleapis.com%2Fcss%3Ffamily%3DLato;" edge="1" parent="1" source="4Y34ImJFYAZYyXCG5VLT-21" target="4Y34ImJFYAZYyXCG5VLT-32">
          <mxGeometry relative="1" as="geometry" />
        </mxCell>
        <mxCell id="4Y34ImJFYAZYyXCG5VLT-21" value="Request for storage accounts" style="verticalLabelPosition=bottom;html=1;verticalAlign=top;align=center;strokeColor=none;fillColor=#00BEF2;shape=mxgraph.azure.startup_task;pointerEvents=1;fontFamily=Lato;fontSource=https%3A%2F%2Ffonts.googleapis.com%2Fcss%3Ffamily%3DLato;fontSize=11;" vertex="1" parent="1">
          <mxGeometry x="356.75" y="415.5" width="32.25" height="36.5" as="geometry" />
        </mxCell>
        <mxCell id="4Y34ImJFYAZYyXCG5VLT-28" style="edgeStyle=orthogonalEdgeStyle;curved=1;orthogonalLoop=1;jettySize=auto;html=1;entryX=-0.013;entryY=0.576;entryDx=0;entryDy=0;entryPerimeter=0;fontFamily=Lato;fontSource=https%3A%2F%2Ffonts.googleapis.com%2Fcss%3Ffamily%3DLato;exitX=0.426;exitY=1.015;exitDx=0;exitDy=0;exitPerimeter=0;" edge="1" parent="1" source="4Y34ImJFYAZYyXCG5VLT-22" target="4Y34ImJFYAZYyXCG5VLT-20">
          <mxGeometry relative="1" as="geometry" />
        </mxCell>
        <mxCell id="4Y34ImJFYAZYyXCG5VLT-29" value="Authentication" style="edgeLabel;html=1;align=center;verticalAlign=middle;resizable=0;points=[];fontFamily=Lato;" vertex="1" connectable="0" parent="4Y34ImJFYAZYyXCG5VLT-28">
          <mxGeometry x="-0.3354" y="7" relative="1" as="geometry">
            <mxPoint as="offset" />
          </mxGeometry>
        </mxCell>
        <mxCell id="4Y34ImJFYAZYyXCG5VLT-22" value="Key Vault" style="aspect=fixed;html=1;points=[];align=right;image;fontSize=11;image=img/lib/azure2/security/Key_Vaults.svg;fontFamily=Lato;fontSource=https%3A%2F%2Ffonts.googleapis.com%2Fcss%3Ffamily%3DLato;labelPosition=left;verticalLabelPosition=middle;verticalAlign=middle;" vertex="1" parent="1">
          <mxGeometry x="-10" y="330" width="40" height="40" as="geometry" />
        </mxCell>
        <mxCell id="4Y34ImJFYAZYyXCG5VLT-36" value="" style="edgeStyle=orthogonalEdgeStyle;curved=1;orthogonalLoop=1;jettySize=auto;html=1;fontFamily=Lato;fontSource=https%3A%2F%2Ffonts.googleapis.com%2Fcss%3Ffamily%3DLato;startArrow=none;startFill=0;" edge="1" parent="1" source="4Y34ImJFYAZYyXCG5VLT-32" target="4Y34ImJFYAZYyXCG5VLT-35">
          <mxGeometry relative="1" as="geometry" />
        </mxCell>
        <mxCell id="4Y34ImJFYAZYyXCG5VLT-32" value="Request for file shares" style="verticalLabelPosition=bottom;html=1;verticalAlign=top;align=center;strokeColor=none;fillColor=#00BEF2;shape=mxgraph.azure.startup_task;pointerEvents=1;fontFamily=Lato;fontSource=https%3A%2F%2Ffonts.googleapis.com%2Fcss%3Ffamily%3DLato;fontSize=11;" vertex="1" parent="1">
          <mxGeometry x="499.25" y="415.5" width="31.75" height="36.5" as="geometry" />
        </mxCell>
        <mxCell id="4Y34ImJFYAZYyXCG5VLT-34" style="edgeStyle=orthogonalEdgeStyle;curved=1;orthogonalLoop=1;jettySize=auto;html=1;entryX=0.5;entryY=0;entryDx=0;entryDy=0;entryPerimeter=0;fontFamily=Lato;fontSource=https%3A%2F%2Ffonts.googleapis.com%2Fcss%3Ffamily%3DLato;startArrow=classic;startFill=1;" edge="1" parent="1" source="4Y34ImJFYAZYyXCG5VLT-8" target="4Y34ImJFYAZYyXCG5VLT-32">
          <mxGeometry relative="1" as="geometry" />
        </mxCell>
        <mxCell id="4Y34ImJFYAZYyXCG5VLT-53" value="API Calls" style="edgeLabel;html=1;align=center;verticalAlign=middle;resizable=0;points=[];fontSize=11;fontFamily=Lato;" vertex="1" connectable="0" parent="4Y34ImJFYAZYyXCG5VLT-34">
          <mxGeometry x="-0.3839" y="1" relative="1" as="geometry">
            <mxPoint as="offset" />
          </mxGeometry>
        </mxCell>
        <mxCell id="4Y34ImJFYAZYyXCG5VLT-8" value="Fileshares" style="aspect=fixed;html=1;points=[];align=center;image;fontSize=11;image=img/lib/azure2/storage/Data_Shares.svg;fontFamily=Lato;fontSource=https%3A%2F%2Ffonts.googleapis.com%2Fcss%3Ffamily%3DLato;labelPosition=center;verticalLabelPosition=top;verticalAlign=bottom;" vertex="1" parent="1">
          <mxGeometry x="486" y="234" width="57.02" height="49" as="geometry" />
        </mxCell>
        <mxCell id="4Y34ImJFYAZYyXCG5VLT-50" style="edgeStyle=orthogonalEdgeStyle;curved=1;orthogonalLoop=1;jettySize=auto;html=1;entryX=1.035;entryY=0.184;entryDx=0;entryDy=0;entryPerimeter=0;fontFamily=Lato;fontSource=https%3A%2F%2Ffonts.googleapis.com%2Fcss%3Ffamily%3DLato;startArrow=none;startFill=0;endArrow=none;endFill=0;" edge="1" parent="1" source="4Y34ImJFYAZYyXCG5VLT-11" target="4Y34ImJFYAZYyXCG5VLT-8">
          <mxGeometry relative="1" as="geometry" />
        </mxCell>
        <mxCell id="4Y34ImJFYAZYyXCG5VLT-11" value="FSLogix" style="text;html=1;strokeColor=none;fillColor=none;align=center;verticalAlign=middle;whiteSpace=wrap;rounded=0;fontFamily=Lato;fontSource=https%3A%2F%2Ffonts.googleapis.com%2Fcss%3Ffamily%3DLato;" vertex="1" parent="1">
          <mxGeometry x="586.25" y="228" width="60" height="30" as="geometry" />
        </mxCell>
        <mxCell id="4Y34ImJFYAZYyXCG5VLT-37" style="edgeStyle=orthogonalEdgeStyle;curved=1;orthogonalLoop=1;jettySize=auto;html=1;fontFamily=Lato;fontSource=https%3A%2F%2Ffonts.googleapis.com%2Fcss%3Ffamily%3DLato;startArrow=classic;startFill=1;" edge="1" parent="1" source="4Y34ImJFYAZYyXCG5VLT-15" target="4Y34ImJFYAZYyXCG5VLT-35">
          <mxGeometry relative="1" as="geometry" />
        </mxCell>
        <mxCell id="4Y34ImJFYAZYyXCG5VLT-54" value="API Calls" style="edgeLabel;html=1;align=center;verticalAlign=middle;resizable=0;points=[];fontSize=11;fontFamily=Lato;" vertex="1" connectable="0" parent="4Y34ImJFYAZYyXCG5VLT-37">
          <mxGeometry x="-0.3641" y="1" relative="1" as="geometry">
            <mxPoint as="offset" />
          </mxGeometry>
        </mxCell>
        <mxCell id="4Y34ImJFYAZYyXCG5VLT-51" style="edgeStyle=orthogonalEdgeStyle;curved=1;orthogonalLoop=1;jettySize=auto;html=1;fontFamily=Lato;fontSource=https%3A%2F%2Ffonts.googleapis.com%2Fcss%3Ffamily%3DLato;startArrow=none;startFill=0;endArrow=none;endFill=0;entryX=1;entryY=0.837;entryDx=0;entryDy=0;entryPerimeter=0;" edge="1" parent="1" source="4Y34ImJFYAZYyXCG5VLT-15" target="4Y34ImJFYAZYyXCG5VLT-8">
          <mxGeometry relative="1" as="geometry">
            <mxPoint x="550" y="280" as="targetPoint" />
          </mxGeometry>
        </mxCell>
        <mxCell id="4Y34ImJFYAZYyXCG5VLT-15" value="Data" style="text;html=1;strokeColor=none;fillColor=none;align=center;verticalAlign=middle;whiteSpace=wrap;rounded=0;fontFamily=Lato;fontSource=https%3A%2F%2Ffonts.googleapis.com%2Fcss%3Ffamily%3DLato;" vertex="1" parent="1">
          <mxGeometry x="586.25" y="260" width="60" height="30" as="geometry" />
        </mxCell>
        <mxCell id="4Y34ImJFYAZYyXCG5VLT-35" value="Share info" style="verticalLabelPosition=bottom;html=1;verticalAlign=top;align=center;strokeColor=none;fillColor=#00BEF2;shape=mxgraph.azure.startup_task;pointerEvents=1;fontFamily=Lato;fontSource=https%3A%2F%2Ffonts.googleapis.com%2Fcss%3Ffamily%3DLato;fontSize=11;" vertex="1" parent="1">
          <mxGeometry x="598.75" y="415.5" width="34.25" height="36.5" as="geometry" />
        </mxCell>
        <mxCell id="4Y34ImJFYAZYyXCG5VLT-40" value="" style="shape=image;html=1;verticalAlign=top;verticalLabelPosition=bottom;labelBackgroundColor=#ffffff;imageAspect=0;aspect=fixed;image=https://cdn4.iconfinder.com/data/icons/evil-icons-user-interface/64/download-128.png;fontFamily=Lato;fontSource=https%3A%2F%2Ffonts.googleapis.com%2Fcss%3Ffamily%3DLato;" vertex="1" parent="1">
          <mxGeometry x="620" y="380" width="48" height="48" as="geometry" />
        </mxCell>
        <mxCell id="4Y34ImJFYAZYyXCG5VLT-41" value="" style="shape=image;html=1;verticalAlign=top;verticalLabelPosition=bottom;labelBackgroundColor=#ffffff;imageAspect=0;aspect=fixed;image=https://cdn4.iconfinder.com/data/icons/evil-icons-user-interface/64/download-128.png;fontFamily=Lato;fontSource=https%3A%2F%2Ffonts.googleapis.com%2Fcss%3Ffamily%3DLato;" vertex="1" parent="1">
          <mxGeometry x="520" y="380" width="48" height="48" as="geometry" />
        </mxCell>
        <mxCell id="4Y34ImJFYAZYyXCG5VLT-47" value="REPEAT" style="rounded=1;whiteSpace=wrap;html=1;fontFamily=Architects Daughter;fontSource=https%3A%2F%2Ffonts.googleapis.com%2Fcss%3Ffamily%3DArchitects%2BDaughter;fillColor=#f5f5f5;strokeColor=#666666;dashed=1;dashPattern=1 1;fontColor=#333333;" vertex="1" parent="1">
          <mxGeometry x="380" y="358" width="70" height="24" as="geometry" />
        </mxCell>
        <mxCell id="4Y34ImJFYAZYyXCG5VLT-42" value="" style="shape=image;html=1;verticalAlign=top;verticalLabelPosition=bottom;labelBackgroundColor=#ffffff;imageAspect=0;aspect=fixed;image=https://cdn4.iconfinder.com/data/icons/evil-icons-user-interface/64/download-128.png;fontFamily=Lato;fontSource=https%3A%2F%2Ffonts.googleapis.com%2Fcss%3Ffamily%3DLato;" vertex="1" parent="1">
          <mxGeometry x="380" y="380" width="48" height="48" as="geometry" />
        </mxCell>
        <mxCell id="4Y34ImJFYAZYyXCG5VLT-45" style="edgeStyle=orthogonalEdgeStyle;curved=1;orthogonalLoop=1;jettySize=auto;html=1;entryX=1;entryY=0.5;entryDx=0;entryDy=0;entryPerimeter=0;fontFamily=Lato;fontSource=https%3A%2F%2Ffonts.googleapis.com%2Fcss%3Ffamily%3DLato;startArrow=classic;startFill=1;endArrow=none;endFill=0;" edge="1" parent="1" source="4Y34ImJFYAZYyXCG5VLT-43" target="4Y34ImJFYAZYyXCG5VLT-35">
          <mxGeometry relative="1" as="geometry" />
        </mxCell>
        <mxCell id="4Y34ImJFYAZYyXCG5VLT-46" value="90% &amp;lt;" style="edgeLabel;html=1;align=center;verticalAlign=middle;resizable=0;points=[];fontFamily=Lato;" vertex="1" connectable="0" parent="4Y34ImJFYAZYyXCG5VLT-45">
          <mxGeometry x="0.2644" relative="1" as="geometry">
            <mxPoint as="offset" />
          </mxGeometry>
        </mxCell>
        <mxCell id="4Y34ImJFYAZYyXCG5VLT-43" value="MS Teams" style="shape=image;html=1;verticalAlign=top;verticalLabelPosition=bottom;labelBackgroundColor=#ffffff;imageAspect=0;aspect=fixed;image=https://cdn0.iconfinder.com/data/icons/logos-microsoft-office-365/128/Microsoft_Office-10-128.png;fontFamily=Lato;fontSource=https%3A%2F%2Ffonts.googleapis.com%2Fcss%3Ffamily%3DLato;fontSize=11;" vertex="1" parent="1">
          <mxGeometry x="750" y="404.75" width="58" height="58" as="geometry" />
        </mxCell>
        <mxCell id="4Y34ImJFYAZYyXCG5VLT-48" value="REPEAT" style="rounded=1;whiteSpace=wrap;html=1;fontFamily=Architects Daughter;fontSource=https%3A%2F%2Ffonts.googleapis.com%2Fcss%3Ffamily%3DArchitects%2BDaughter;fillColor=#f5f5f5;strokeColor=#666666;dashed=1;dashPattern=1 1;fontColor=#333333;" vertex="1" parent="1">
          <mxGeometry x="531" y="358" width="70" height="24" as="geometry" />
        </mxCell>
        <mxCell id="4Y34ImJFYAZYyXCG5VLT-49" value="REPEAT" style="rounded=1;whiteSpace=wrap;html=1;fontFamily=Architects Daughter;fontSource=https%3A%2F%2Ffonts.googleapis.com%2Fcss%3Ffamily%3DArchitects%2BDaughter;fillColor=#f5f5f5;strokeColor=#666666;dashed=1;dashPattern=1 1;fontColor=#333333;" vertex="1" parent="1">
          <mxGeometry x="633" y="358" width="70" height="24" as="geometry" />
        </mxCell>
      </root>
    </mxGraphModel>
  </diagram>
</mxfile>
